<svg width="110" height="25" viewBox="0 0 110 25" fill="none" xmlns="http://www.w3.org/2000/svg">
<path d="M97.0179 8.65401H96.9287C96.6966 8.65664 96.4748 8.75184 96.3115 8.91892C96.1482 9.086 96.0567 9.3115 96.0567 9.54646V18.3708C96.0567 18.6075 96.1496 18.8345 96.315 19.0018C96.4804 19.1692 96.7048 19.2632 96.9387 19.2632C97.1726 19.2632 97.3969 19.1692 97.5623 19.0018C97.7277 18.8345 97.8206 18.6075 97.8206 18.3708V9.53644C97.8191 9.31474 97.736 9.10157 97.5876 8.93845C97.4392 8.77532 97.2362 8.67393 97.0179 8.65401ZM87.3756 9.53644C87.3735 9.35236 87.3146 9.17354 87.2071 9.02503C87.1596 8.95041 87.095 8.88849 87.0189 8.84453H86.9495C86.8161 8.76419 86.6639 8.72133 86.5087 8.72038C86.3535 8.71943 86.2008 8.76042 86.0665 8.83912C85.9322 8.91781 85.821 9.03137 85.7445 9.16805C85.6681 9.30474 85.629 9.45961 85.6315 9.61666V10.469C85.2851 9.88153 84.7882 9.39984 84.1932 9.07501C83.5983 8.75017 82.9276 8.5943 82.2522 8.62392C81.563 8.60901 80.8787 8.74461 80.2459 9.02148C79.6132 9.29835 79.0469 9.70999 78.5855 10.2283C77.5958 11.3197 77.066 12.7588 77.1089 14.2394C77.08 15.551 77.5603 16.8218 78.4468 17.7791C78.8857 18.2599 79.4218 18.6395 80.0186 18.8921C80.6153 19.1447 81.2588 19.2645 81.9053 19.2432C82.6399 19.2928 83.3733 19.1307 84.0205 18.7757C84.6677 18.4208 85.2022 17.8875 85.5621 17.2376V17.4583V18.3307C85.5646 18.5648 85.657 18.7889 85.8197 18.9554C85.9825 19.1219 86.2028 19.2179 86.4342 19.2231H86.4936C86.7206 19.2128 86.9349 19.1142 87.0918 18.948C87.2487 18.7817 87.3362 18.5606 87.336 18.3307V9.94757C87.336 9.94757 87.336 9.94757 87.336 9.87737L87.3756 9.53644ZM84.6306 16.5558C84.3127 16.8872 83.9299 17.1476 83.5066 17.3203C83.0833 17.493 82.629 17.5742 82.1729 17.5585C81.754 17.5591 81.3396 17.47 80.9571 17.2972C80.5745 17.1244 80.2324 16.8717 79.9531 16.5558C79.6483 16.2275 79.4108 15.8414 79.2543 15.4197C79.0978 14.998 79.0254 14.5491 79.0414 14.099C79.0039 13.0796 79.3351 12.0813 79.9729 11.2913C80.2538 10.9409 80.6089 10.659 81.012 10.4663C81.4151 10.2736 81.8559 10.1752 82.3017 10.1782C82.7339 10.1768 83.1618 10.265 83.5589 10.4375C83.9561 10.61 84.314 10.863 84.6107 11.181C84.9492 11.5403 85.2116 11.9658 85.382 12.4313C85.5524 12.8969 85.6272 13.3927 85.6017 13.8884C85.631 14.3829 85.5599 14.8782 85.3929 15.3438C85.2259 15.8094 84.9664 16.2355 84.6306 16.5959V16.5558ZM104.797 8.60387C103.754 8.59002 102.73 8.88982 101.855 9.4653C100.98 10.0408 100.293 10.8661 99.8823 11.8366C99.4712 12.8071 99.354 13.8793 99.5456 14.9173C99.7371 15.9553 100.229 16.9124 100.958 17.6674C101.688 18.4225 102.622 18.9415 103.644 19.1587C104.665 19.3759 105.727 19.2816 106.695 18.8877C107.663 18.4937 108.494 17.8179 109.082 16.9458C109.671 16.0737 109.99 15.0446 110 13.9887C110.004 13.2921 109.872 12.6015 109.612 11.9564C109.352 11.3113 108.97 10.7243 108.486 10.2289C108.001 9.73356 107.426 9.33951 106.791 9.06928C106.157 8.79906 105.476 8.65794 104.787 8.65401L104.797 8.60387ZM106.343 17.0872C105.866 17.3381 105.335 17.4688 104.797 17.4683C104.075 17.4633 103.374 17.228 102.792 16.7959C102.21 16.3637 101.778 15.7569 101.557 15.0617C101.4 14.5572 101.356 14.0238 101.428 13.5001C101.5 12.9764 101.686 12.4754 101.973 12.0333C102.306 11.5277 102.766 11.1208 103.305 10.854C103.845 10.5873 104.445 10.4704 105.043 10.5153C105.642 10.5602 106.219 10.7652 106.713 11.1095C107.208 11.4537 107.604 11.9248 107.859 12.4745C108.261 13.3055 108.328 14.2621 108.045 15.1419C107.762 16.0216 107.152 16.7553 106.343 17.1875V17.0872ZM33.0693 8.65401C32.0242 8.64208 30.9991 8.94478 30.1243 9.52367C29.2495 10.1026 28.5646 10.9315 28.1564 11.9052C27.7482 12.8788 27.6353 13.9533 27.832 14.9921C28.0286 16.0308 28.526 16.987 29.2609 17.7391C29.9958 18.4912 30.935 19.0053 31.9593 19.2161C32.9836 19.4268 34.0466 19.3247 35.0134 18.9228C35.9803 18.5209 36.8072 17.8372 37.3892 16.9587C37.9711 16.0801 38.2819 15.0463 38.282 13.9887C38.2859 13.2921 38.1541 12.6015 37.8943 11.9564C37.6345 11.3113 37.2516 10.7243 36.7676 10.2289C36.2835 9.73356 35.7078 9.33951 35.0732 9.06928C34.4387 8.79906 33.7578 8.65794 33.0693 8.65401ZM34.6153 17.1374C34.1377 17.3882 33.6074 17.5189 33.0693 17.5184C32.3476 17.5134 31.6459 17.2781 31.064 16.846C30.4822 16.4139 30.0499 15.807 29.8288 15.1118C29.6659 14.5994 29.6195 14.0563 29.6933 13.5232C29.7671 12.99 29.9591 12.4807 30.2549 12.0333C30.588 11.5277 31.0478 11.1208 31.5873 10.854C32.1268 10.5873 32.7266 10.4704 33.3254 10.5153C33.9243 10.5602 34.5006 10.7652 34.9953 11.1095C35.4901 11.4537 35.8856 11.9248 36.1414 12.4745C36.5435 13.3055 36.6101 14.2621 36.3271 15.1419C36.044 16.0216 35.4336 16.7553 34.6252 17.1875L34.6153 17.1374ZM44.8819 8.58381C44.2114 8.59455 43.5592 8.80753 43.009 9.1955C42.404 9.61921 41.9244 10.2016 41.6216 10.8801V9.53644C41.62 9.31474 41.5369 9.10157 41.3886 8.93845C41.2402 8.77532 41.0371 8.67393 40.8189 8.65401H40.7297C40.4975 8.65664 40.2757 8.75184 40.1124 8.91892C39.9492 9.086 39.8576 9.3115 39.8576 9.54646V18.3708C39.8576 18.6075 39.9506 18.8345 40.116 19.0018C40.2814 19.1692 40.5057 19.2632 40.7396 19.2632C40.9735 19.2632 41.1979 19.1692 41.3633 19.0018C41.5287 18.8345 41.6216 18.6075 41.6216 18.3708V14.3597C41.5852 13.3471 41.9008 12.3535 42.5135 11.552C42.7611 11.2094 43.0846 10.9303 43.4581 10.737C43.8315 10.5437 44.2445 10.4416 44.6639 10.4389H45.0901C45.207 10.4476 45.3243 10.4286 45.4327 10.3833C45.5411 10.3381 45.6376 10.2678 45.7144 10.1782C45.8608 9.99376 45.938 9.76289 45.9324 9.52641C45.9192 8.89801 45.569 8.58381 44.8819 8.58381ZM71.6387 8.58381C70.8738 8.57805 70.1212 8.77882 69.4585 9.16541C68.8325 9.51642 68.338 10.0661 68.0513 10.7297V9.53644C68.0497 9.31474 67.9667 9.10157 67.8183 8.93845C67.6699 8.77532 67.4668 8.67393 67.2486 8.65401H67.1297C66.9062 8.66672 66.6958 8.76497 66.5412 8.92884C66.3866 9.0927 66.2994 9.30991 66.2972 9.53644V18.3607C66.2972 18.5974 66.3902 18.8244 66.5556 18.9918C66.721 19.1592 66.9453 19.2532 67.1792 19.2532C67.4131 19.2532 67.6375 19.1592 67.8029 18.9918C67.9683 18.8244 68.0612 18.5974 68.0612 18.3607V14.5803C68.0589 14.1448 68.082 13.7095 68.1306 13.2767C68.1721 12.8812 68.2551 12.4913 68.3783 12.1135C68.4923 11.7459 68.6776 11.405 68.9234 11.1108C69.1791 10.8296 69.4941 10.6103 69.845 10.469C70.2829 10.2927 70.7513 10.2074 71.2225 10.2183C72.8014 10.2183 73.6041 11.3214 73.6306 13.5274C73.6306 14.1023 73.6306 14.9413 73.6306 16.0444C73.6306 17.1474 73.6306 17.6789 73.6306 18.0499C73.6306 18.822 73.9873 19.193 74.572 19.193C75.1567 19.193 75.4639 18.9524 75.563 18.0499V13.0361C75.6332 11.8549 75.2814 10.6876 74.572 9.74701C74.214 9.33094 73.7654 9.00475 73.2615 8.79418C72.7576 8.58362 72.2122 8.49443 71.6684 8.53367L71.6387 8.58381ZM89.8729 3.38951C89.639 3.38951 89.4146 3.48353 89.2493 3.6509C89.0838 3.81827 88.9909 4.04527 88.9909 4.28196V18.3708C88.9909 18.6075 89.0838 18.8345 89.2493 19.0018C89.4146 19.1692 89.639 19.2632 89.8729 19.2632C90.1068 19.2632 90.3312 19.1692 90.4966 19.0018C90.662 18.8345 90.7549 18.6075 90.7549 18.3708V4.24185C90.7551 4.01195 90.6677 3.79082 90.5107 3.62456C90.3538 3.4583 90.1395 3.35973 89.9125 3.3494L89.8729 3.38951ZM63.8099 8.65401H63.7207C63.4885 8.65664 63.2667 8.75184 63.1034 8.91892C62.9401 9.086 62.8486 9.3115 62.8486 9.54646V18.3708C62.8486 18.6075 62.9415 18.8345 63.1069 19.0018C63.2723 19.1692 63.4967 19.2632 63.7306 19.2632C63.9645 19.2632 64.1888 19.1692 64.3542 19.0018C64.5196 18.8345 64.6126 18.6075 64.6126 18.3708V9.53644C64.611 9.31474 64.5279 9.10157 64.3795 8.93845C64.2311 8.77532 64.0281 8.67393 63.8099 8.65401ZM48.5585 8.65401H48.4693C48.2371 8.65664 48.0153 8.75184 47.8521 8.91892C47.6888 9.086 47.5972 9.3115 47.5973 9.54646V18.3708C47.5973 18.6075 47.6902 18.8345 47.8556 19.0018C48.021 19.1692 48.2453 19.2632 48.4792 19.2632C48.7132 19.2632 48.9375 19.1692 49.1029 19.0018C49.2683 18.8345 49.3612 18.6075 49.3612 18.3708V9.53644C49.3596 9.31474 49.2766 9.10157 49.1282 8.93845C48.9798 8.77532 48.7767 8.67393 48.5585 8.65401ZM60.5991 8.7242C60.4651 8.66424 60.3185 8.63899 60.1725 8.65073C60.0264 8.66246 59.8856 8.71082 59.7627 8.79142C59.6397 8.87203 59.5386 8.98235 59.4683 9.11242C59.3981 9.24249 59.361 9.38821 59.3603 9.53644V10.3386C59.009 9.79225 58.5267 9.34478 57.9583 9.03793C57.3899 8.73108 56.754 8.57485 56.1099 8.58381C55.4206 8.5689 54.7364 8.7045 54.1036 8.98137C53.4709 9.25824 52.9045 9.66988 52.4432 10.1882C51.4507 11.2779 50.9205 12.7182 50.9666 14.1993C50.9496 15.5222 51.4438 16.7996 52.3441 17.7591C52.7779 18.2464 53.3107 18.633 53.9059 18.8927C54.5011 19.1523 55.1448 19.2787 55.7927 19.2632C56.5115 19.2714 57.2205 19.0955 57.854 18.7518C58.4651 18.422 58.9756 17.9297 59.3306 17.3279V18.9223C59.3499 19.4144 59.2723 19.9054 59.1021 20.3668C58.932 20.8282 58.6728 21.2507 58.3396 21.6097C58.0165 21.9424 57.6285 22.2034 57.2002 22.3761C56.772 22.5487 56.3129 22.6292 55.8522 22.6124C55.1416 22.6167 54.4374 22.4769 53.781 22.2013C53.6615 22.1569 53.5456 22.1033 53.4342 22.0409C53.3202 21.9768 53.2008 21.9232 53.0774 21.8804C52.9854 21.8673 52.892 21.8673 52.8 21.8804C52.688 21.8803 52.5774 21.9055 52.4763 21.954C52.3752 22.0026 52.286 22.0734 52.2153 22.1612C52.0582 22.3414 51.9703 22.5727 51.9675 22.813C51.9675 23.2074 52.2219 23.5417 52.7306 23.8158C53.6988 24.2672 54.7568 24.4869 55.8225 24.4575C56.5281 24.4816 57.2313 24.3617 57.8901 24.105C58.549 23.8483 59.1501 23.4601 59.6576 22.9634C60.1622 22.4541 60.554 21.842 60.8068 21.1677C61.0597 20.4935 61.1679 19.7725 61.1243 19.0526V18.5312V16.9067C61.1243 15.7168 61.1243 13.7113 61.1243 10.8902V9.53644C61.1253 9.36639 61.0782 9.19961 60.9887 9.05571C60.8991 8.91182 60.7708 8.7968 60.6189 8.7242H60.5991ZM59.3801 14.5402C59.2905 15.305 58.9401 16.0143 58.3891 16.5457C58.0768 16.8677 57.7033 17.1225 57.2912 17.2948C56.8791 17.4672 56.4368 17.5534 55.9909 17.5485C55.5687 17.5519 55.1505 17.4642 54.7643 17.2913C54.3782 17.1184 54.0328 16.8643 53.7513 16.5457C53.4448 16.2166 53.2063 15.8289 53.0498 15.4053C52.8932 14.9817 52.8218 14.5308 52.8396 14.0789C52.8101 13.0504 53.1639 12.0482 53.8306 11.2712C54.1195 10.9228 54.4828 10.6453 54.893 10.4594C55.3033 10.2736 55.7498 10.1843 56.1991 10.1983C56.6303 10.1933 57.0577 10.28 57.4538 10.4528C57.8498 10.6255 58.2056 10.8804 58.4981 11.201C59.0175 11.7749 59.3285 12.5104 59.3801 13.2868C59.3921 13.5039 59.3921 13.7215 59.3801 13.9386C59.3923 14.1389 59.3923 14.3399 59.3801 14.5402ZM93.4306 17.4984C93.2581 17.4984 93.0895 17.5501 92.9461 17.6471C92.8027 17.744 92.6909 17.8819 92.6249 18.0431C92.5589 18.2043 92.5416 18.3818 92.5752 18.5529C92.6089 18.7241 92.6919 18.8814 92.8139 19.0048C92.9359 19.1282 93.0913 19.2122 93.2604 19.2463C93.4296 19.2803 93.6049 19.2628 93.7643 19.1961C93.9236 19.1293 94.0598 19.0162 94.1557 18.871C94.2515 18.7259 94.3026 18.5553 94.3026 18.3808C94.3026 18.2641 94.2798 18.1485 94.2353 18.0408C94.1909 17.9331 94.1257 17.8353 94.0437 17.7533C93.9617 17.6712 93.8644 17.6064 93.7574 17.5626C93.6505 17.5189 93.536 17.497 93.4206 17.4984H93.4306ZM23.4171 12.7553C23.3348 12.4767 23.2039 12.2151 23.0306 11.9832C22.9417 11.8637 22.8458 11.7499 22.7432 11.6422C22.5701 11.4763 22.3809 11.3285 22.1784 11.201L4.2018 0.541663L3.78558 0.290973C3.43032 0.103935 3.03648 0.00430531 2.63603 0.000171595C2.29128 -0.00380798 1.94916 0.0614687 1.62951 0.192221C1.30986 0.322973 1.01903 0.516601 0.77385 0.761891C0.528674 1.00718 0.334032 1.29926 0.201198 1.6212C0.068364 1.94314 -2.2426e-05 2.28856 5.51654e-09 2.63744C0.0209869 3.27105 0.239265 3.88177 0.623672 4.38239C1.00808 4.88302 1.53896 5.24796 2.14054 5.42511L2.69549 5.58555V22.432C2.68632 22.5923 2.68632 22.753 2.69549 22.9133C2.73635 23.0906 2.78933 23.2648 2.85405 23.4347C2.91067 23.5799 2.98384 23.7179 3.07207 23.8458C3.15678 23.9748 3.25297 24.0956 3.35946 24.2068C3.46123 24.3149 3.57052 24.4154 3.68648 24.5077C3.8004 24.5922 3.91957 24.6692 4.04324 24.7383L4.38018 24.8887L4.76666 24.989H5.17297H5.23243C5.39397 25.0037 5.55648 25.0037 5.71801 24.989C5.9179 24.9468 6.11359 24.8864 6.3027 24.8085L6.57027 24.6781H6.62972L6.93693 24.5578L7.39279 24.2971L21.8018 16.0444L22.2874 15.7536C22.489 15.6293 22.6753 15.4812 22.8423 15.3123C22.9826 15.1632 23.1056 14.9983 23.209 14.821C23.3185 14.6364 23.4018 14.4373 23.4567 14.2294C23.5003 14.0685 23.5301 13.9041 23.5459 13.738C23.5611 13.5779 23.5611 13.4168 23.5459 13.2567C23.5158 13.0864 23.4727 12.9188 23.4171 12.7553ZM2.97297 4.78335L2.75495 4.71315L2.41802 4.6229C1.98137 4.49529 1.5945 4.23396 1.31058 3.87485C1.02666 3.51573 0.859623 3.07645 0.832432 2.61738C0.835034 2.14746 1.02067 1.69754 1.34906 1.36525C1.67744 1.03297 2.12208 0.845124 2.58648 0.842491C2.85955 0.832024 3.1312 0.886998 3.37928 1.00293L3.64684 1.16338L3.78558 1.2436C7.2923 3.41472 10.1226 6.54279 11.9513 10.2685L11.8919 10.2584L11.7829 10.1281L11.5649 9.86735L11.4658 9.75704L11.2081 9.4863L11.1387 9.4161L10.8315 9.11528C8.55528 7.10907 5.87316 5.63059 2.97297 4.78335ZM6.56036 23.8358L6.32252 23.9762L6.12432 24.0665C5.98638 24.1226 5.84377 24.1662 5.69819 24.1968C5.57629 24.2095 5.45343 24.2095 5.33153 24.1968H5.05405L4.78648 24.1266L4.53873 24.0163L4.32072 23.8759L4.09279 23.6653C4.01921 23.5882 3.95286 23.5042 3.89459 23.4147C3.8423 23.3364 3.79907 23.2522 3.76576 23.164C3.71782 23.0398 3.67809 22.9125 3.64684 22.7829C3.64017 22.6627 3.64017 22.5422 3.64684 22.4219V5.87636C4.86219 6.31775 6.03895 6.86113 7.16486 7.50083L7.3036 7.58105L7.57117 7.74149L7.77927 7.87185L7.93783 7.97213C8.25495 8.17268 8.57207 8.38326 8.92882 8.61389L9.26576 8.87461C9.735 9.24099 10.1787 9.6397 10.5937 10.0679C10.8883 10.3844 11.163 10.7193 11.4162 11.0707L11.4658 11.1409L11.664 11.4216L11.773 11.5821L11.9315 11.8428L12.0504 12.0634L12.1793 12.3041C12.2519 12.4511 12.3213 12.5982 12.3874 12.7453L12.4667 12.9358L12.5955 13.2667L12.6649 13.4673C12.7045 13.5876 12.7408 13.7113 12.7739 13.8383L12.8829 14.0388C12.8829 14.2093 12.9622 14.3898 12.9919 14.5703C12.9919 14.7408 12.9919 14.9112 12.9919 15.0817C12.9919 15.2522 12.9919 15.2121 12.9919 15.2823C12.9919 15.3525 12.9919 15.5831 12.9919 15.7335C12.9919 15.8839 12.9919 15.8839 12.9919 15.9541C12.9919 16.0243 12.9919 16.2349 12.9126 16.3652C12.8333 16.4956 12.9126 16.5257 12.8631 16.6059C12.8135 16.6861 12.7937 16.8566 12.764 16.9769C12.7342 17.0973 12.764 17.1574 12.6847 17.2477C12.6054 17.3379 12.6054 17.4683 12.5658 17.5786C12.5261 17.6889 12.4964 17.7791 12.4468 17.8794L12.3279 18.1401C12.2784 18.2605 12.2189 18.3708 12.1595 18.4911L12.0604 18.6616C10.7387 20.857 8.83722 22.6352 6.57027 23.7957L6.56036 23.8358ZM22.6243 14.0388C22.5895 14.1728 22.5361 14.3011 22.4657 14.4199C22.3961 14.5426 22.313 14.6569 22.218 14.7608C22.0909 14.8709 21.9511 14.9652 21.8018 15.0416L21.3261 15.3324L11.327 21.0582L11.4658 20.8877L11.7432 20.5468L11.9811 20.2359L12.1495 20.0053L12.4369 19.554L12.5658 19.3234C12.6549 19.1629 12.7441 19.0025 12.8234 18.8421L12.9126 18.6515C12.9853 18.5045 13.0513 18.3541 13.1108 18.2003L13.1802 18.0298C13.2495 17.8594 13.309 17.6789 13.3685 17.5084V17.358C13.4279 17.1675 13.4775 16.9669 13.527 16.7663V16.646C13.527 16.4354 13.6063 16.2249 13.636 16.0042V15.9541C13.6861 15.5718 13.7126 15.1866 13.7153 14.8009C13.7153 14.7307 13.7153 14.6605 13.7153 14.5904C13.7153 14.5202 13.7153 14.5302 13.7153 14.4901C13.7153 14.45 13.7153 14.3697 13.7153 14.2996C13.7153 14.2294 13.7153 14.0489 13.7153 13.9285C13.7153 13.8082 13.7153 13.8283 13.7153 13.7781C13.7153 13.4639 13.6724 13.1497 13.5865 12.8355V12.7653C13.5865 12.5949 13.5171 12.4144 13.4775 12.2439V12.1938C12.5979 9.14432 10.9482 6.37945 8.69098 4.17166L21.7423 11.903C21.8877 11.9964 22.0238 12.1038 22.1486 12.2238L22.3567 12.4745C22.4121 12.5509 22.4618 12.6314 22.5054 12.7152C22.5477 12.7994 22.5842 12.8865 22.6144 12.9759C22.6462 13.0944 22.6694 13.215 22.6838 13.3369C22.6935 13.4403 22.6935 13.5444 22.6838 13.6478C22.6767 13.7798 22.6568 13.9108 22.6243 14.0388Z" fill="#DE8F75"/>
</svg>
